<svg width="16" height="16" viewBox="0 0 16 16" fill="none" xmlns="http://www.w3.org/2000/svg">
<g opacity="0.8" clip-path="url(#clip0_620_2457)">
<path d="M8 16C12.4183 16 16 12.4183 16 8C16 3.58172 12.4183 0 8 0C3.58172 0 0 3.58172 0 8C0 12.4183 3.58172 16 8 16Z" fill="white"/>
<path d="M12.2347 8.64849H7.35156V3.81732C7.35156 3.45368 7.63728 3.16797 8.00091 3.16797C8.36455 3.16797 8.65026 3.45368 8.65026 3.81732V7.34979H12.2347C12.5983 7.34979 12.884 7.6355 12.884 7.99914C12.884 8.36277 12.5983 8.64849 12.2347 8.64849Z" fill="#5C5456"/>
</g>
<defs>
<clipPath id="clip0_620_2457">
<rect width="16" height="16" fill="white"/>
</clipPath>
</defs>
</svg>
