<svg width="425" height="204" viewBox="0 0 425 204" fill="none" xmlns="http://www.w3.org/2000/svg">
<path d="M52.9346 168.367L33.3253 181.246L32.3141 180.936C32.9136 180.067 33.6934 179.237 34.6388 178.46C39.73 175.085 45.1003 171.86 50.0869 168.417C52.7836 166.56 54.0157 163.959 57.0611 162.337C77.5306 151.526 97.9187 140.666 119.155 130.271C135.231 122.407 152.527 115.244 169.858 107.511C168.498 106.842 167.371 106.223 166.115 105.69C129.907 90.3165 94.3502 74.5404 62.6637 56.4672C39.0675 43.0191 18.1331 28.506 2.4526 11.9745C0.914653 10.4894 0.0732501 8.82833 0 7.13271L10.8217 14.284L9.07817 10.7362L9.72909 10.3028L23.6776 18.3085L21.2018 14.8722C27.1415 14.3273 26.014 19.7945 32.8255 18.6367L28.6294 13.5348L30.6635 13.0704L49.773 28.4069L52.0978 27.5711L35.2317 14.2592L36.5568 13.6958C37.7499 14.2967 38.8609 14.9423 39.8812 15.6276C45.2862 19.7759 49.3662 24.6735 56.1545 28.0107C76.775 38.0287 93.2343 50.1703 114.843 59.6806C140.415 70.8997 165.371 82.4594 190.397 93.9695C194.14 95.6908 196.209 95.6227 199.836 93.7528C244.223 70.5716 288.719 47.4564 333.323 24.4072C334.276 23.9119 335.288 23.4413 336.264 22.9584L336.764 23.7571C338.264 23.7571 340.088 24.0543 341.216 23.7076C345.203 22.4692 348.841 20.8966 352.84 19.6768C354.537 19.1629 356.838 19.2063 358.861 18.9958L359.872 19.974L334.869 34.3571L336.032 35.0195L361.86 23.0389C362.592 24.5929 363.022 25.4164 363.743 27.0077L380.295 18.7481C380.702 19.0886 381.074 19.3673 381.353 19.6459C381.632 19.9245 381.818 20.265 382.515 21.1876C396.464 13.9187 409.866 6.94695 423.198 0L425 1.00923C359.454 37.0875 291.675 71.9647 222.828 106.192L354.083 162.38C354.723 163.99 354.583 165.024 355.478 165.618C358.245 167.476 361.616 169.055 364.336 170.918C365.707 171.853 366.172 173.166 367.044 174.311L365.37 175.036L333.66 163.625L332.684 164.244L359.651 176.386L352.793 178.051L371.949 185.481L367.613 186.868C376.448 189.914 384.596 192.923 393.104 195.604C401.613 198.285 410.18 200.557 418.677 202.985C418.421 203.325 418.154 203.666 417.886 204C414.934 203.381 411.877 202.892 409.052 202.143C381.365 194.747 355.161 185.87 330.847 175.649C291.106 159.037 251.934 142.041 212.506 125.218C207.229 122.965 201.882 120.754 196.233 118.358C140.311 143.948 80.9828 167.587 39.1953 201.009C39.823 199.864 40.3578 198.706 41.0785 197.579C41.8689 196.341 42.822 195.103 44.2401 193.146L37.8121 196.013C39.9625 192.651 41.555 190.162 43.3683 187.345L40.4973 187.921C36.4754 185.493 47.1925 183.809 41.927 180.949L35.871 185.109L34.2901 184.868C34.6853 184.045 34.6505 183.048 35.5455 182.429C40.5089 179.005 45.7047 175.674 50.8075 172.305C52.2721 171.333 53.6786 170.336 55.1199 169.352L52.9346 168.367Z" fill="#9A4C22"/>
</svg>
