<svg width="16" height="23" viewBox="0 0 16 23" fill="none" xmlns="http://www.w3.org/2000/svg">
<g opacity="0.8" clip-path="url(#clip0_620_2462)">
<path d="M8 0C3.59298 0 0 3.62116 0 8.06273C0 9.42066 0.336842 10.6937 0.926316 11.8253L8 23L15.0737 11.8253C15.6632 10.6937 16 9.42066 16 8.06273C16 3.62116 12.407 0 8 0V0ZM8 11.2312C6.06316 11.2312 4.5193 9.64699 4.5193 7.72325C4.5193 5.79951 6.09123 4.21525 8 4.21525C9.90877 4.21525 11.4807 5.79951 11.4807 7.72325C11.4807 9.64699 9.90877 11.2312 8 11.2312Z" fill="white"/>
</g>
<defs>
<clipPath id="clip0_620_2462">
<rect width="16" height="23" fill="white"/>
</clipPath>
</defs>
</svg>
