<svg width="97" height="31" viewBox="0 0 97 31" fill="none" xmlns="http://www.w3.org/2000/svg">
<g clip-path="url(#clip0_638_4)">
<path d="M48 8.77206H54.2373V25H58.7529V8.77206H65V5H48V8.77206Z" fill="#EAEAEA"/>
<path d="M70 8.71155H74.1684V25H79V5H70V8.71155Z" fill="#EAEAEA"/>
<path d="M95.0747 14.4643C94.1932 13.7004 92.9975 13.2242 91.518 12.996L96.0475 7.94643V5H81.9829V8.65079H90.5352L86.411 13.2341V16.2401H88.539C89.8562 16.2401 90.8189 16.4583 91.4066 16.8849C92.0044 17.3115 92.2983 17.9067 92.2983 18.6508C92.2983 19.4345 91.9639 20.0595 91.2951 20.506C90.6263 20.9524 89.7042 21.1806 88.539 21.1806C87.5054 21.1806 86.482 21.0218 85.4687 20.7044C84.4554 20.3869 83.5636 19.9504 82.8037 19.4147L81 22.8968C81.9525 23.5714 83.1279 24.0873 84.506 24.4544C85.8841 24.8214 87.2723 25 88.6707 25C90.5858 25 92.1564 24.7024 93.3825 24.0972C94.6086 23.502 95.5206 22.7183 96.1083 21.746C96.7061 20.7837 97 19.7421 97 18.6409C97 16.9345 96.3718 15.5357 95.1051 14.4544L95.0747 14.4643Z" fill="#EAEAEA"/>
<path d="M2.67542 4.62603H18.0212V12L22.2716 7.51236V4.62603H36.7895L40 0H0L2.67542 4.62603Z" fill="#EAEAEA"/>
<path d="M20 13H31.4066L35 8H24.2402L20 13Z" fill="#EAEAEA"/>
<path d="M29.7282 13H23.7087L18 20.4731H24.3495L18 31H23.1068L32 16.4291H27.1748L29.7282 13Z" fill="#EAEAEA"/>
<path d="M7.6949 12.4915H11.2714V25.2425L16 31V8H5L7.6949 12.4915Z" fill="#EAEAEA"/>
</g>
<defs>
<clipPath id="clip0_638_4">
<rect width="97" height="31" fill="white"/>
</clipPath>
</defs>
</svg>
