<svg width="986" height="221" viewBox="0 0 986 221" fill="none" xmlns="http://www.w3.org/2000/svg">
<g opacity="0.05" clip-path="url(#clip0_638_303)">
<path d="M486.26 93.1425H550.986V257.833H597.846V93.1425H662.674V54.8613H486.26V93.1425Z" fill="white"/>
<path d="M713.82 92.5283H754.249V257.833H801.109V54.8613H713.82V92.5283Z" fill="white"/>
<path d="M966.91 152.612C958.028 144.731 945.981 139.818 931.075 137.464L976.71 85.3646V54.9648H835.007V92.6319H921.173L879.621 139.92V170.934H901.061C914.333 170.934 924.031 173.186 929.952 177.587C935.976 181.989 938.937 188.13 938.937 195.807C938.937 203.893 935.568 210.341 928.83 214.947C922.091 219.553 912.801 221.908 901.061 221.908C890.647 221.908 880.336 220.27 870.127 216.994C859.918 213.719 850.934 209.215 843.277 203.688L825.104 239.615C834.701 246.575 846.544 251.898 860.428 255.685C874.313 259.472 888.299 261.315 902.388 261.315C921.683 261.315 937.507 258.244 949.86 252C962.213 245.859 971.402 237.773 977.323 227.742C983.346 217.813 986.307 207.066 986.307 195.704C986.307 178.099 979.977 163.667 967.216 152.51L966.91 152.612Z" fill="white"/>
<path d="M27.0543 47.9026H182.233V124.26L225.214 77.7906V47.9026H372.021L404.487 0H0L27.0543 47.9026Z" fill="white"/>
<path d="M201.629 124.259H315.053L350.785 78.5059H243.793L201.629 124.259Z" fill="white"/>
<path d="M305.559 136.029H242.262L182.232 209.419H249L182.232 312.798H235.933L329.448 169.704H278.709L305.559 136.029Z" fill="white"/>
<path d="M83.2038 124.259H119.651V254.149L167.838 312.799V78.5059H55.7412L83.2038 124.259Z" fill="white"/>
</g>
<defs>
<clipPath id="clip0_638_303">
<rect width="986" height="312.8" fill="white"/>
</clipPath>
</defs>
</svg>
