<svg width="24" height="24" viewBox="0 0 24 24" fill="none" xmlns="http://www.w3.org/2000/svg">
<path d="M16.9264 14.5087L16.7366 14.4487C15.986 14.2162 15.5719 13.6688 15.3346 13.1475C17.6339 11.8725 19.2775 9.37125 19.2775 6.63375C19.2818 2.85375 16.1499 0 12.0086 0C7.86302 0 4.73117 2.85375 4.73117 6.6375C4.73117 9.37125 6.37043 11.8725 8.66971 13.1475C8.37206 13.815 7.90185 14.2538 7.26771 14.4525L7.0779 14.5125C3.98487 15.4763 0.482025 16.5713 0.00318817 20.895C-0.0226949 21.1163 0.111035 21.3225 0.331041 21.4237C4.10566 23.1338 7.98812 24 11.8792 24C15.766 24 19.7347 23.1337 23.6603 21.4275C23.889 21.3263 24.0227 21.1163 23.9968 20.895C23.5223 16.5713 20.0194 15.4762 16.9264 14.5087ZM7.31085 5.68875C8.66108 5.97 12.6945 6.55875 15.9213 4.59375C16.2664 5.03625 16.9221 6.06 17.3362 7.7775H17.3017C17.1982 7.56375 17.017 7.33875 16.7625 7.1175C16.508 6.89625 16.1542 6.76875 15.8005 6.76875H8.04852C7.68615 6.76875 7.34536 6.8925 7.08653 7.1175C6.97868 7.21125 6.89241 7.305 6.81044 7.395C6.99594 6.915 7.18143 6.3375 7.31085 5.68875ZM6.30572 8.595C6.31866 8.595 6.32729 8.59875 6.33592 8.59875H6.53436C6.69397 9.10125 7.1383 10.1775 8.09597 10.5675C8.34186 10.6687 8.59638 10.7175 8.86383 10.7175C9.26071 10.7175 9.68347 10.605 10.1235 10.3837C11.1545 9.8625 11.7153 9.25125 11.7886 8.56125C11.8231 8.2425 11.7455 7.91625 11.56 7.59H12.289C12.1035 7.9125 12.0259 8.23875 12.0604 8.56125C12.1337 9.25125 12.6945 9.8625 13.7255 10.3837C14.1656 10.605 14.5883 10.7175 14.9895 10.7175C15.2526 10.7175 15.5115 10.6687 15.7531 10.5675C16.6848 10.1925 17.1292 9.195 17.3147 8.59875H17.5088C17.5304 8.71875 17.5476 8.83875 17.5692 8.96625C16.6245 11.235 14.3985 12.96 12.0129 12.96C9.48503 12.96 7.15124 11.0437 6.30572 8.595ZM13.4969 22.1775L12.0043 21.495L10.5117 22.1775L10.7964 20.7337L9.58856 19.71L11.258 19.5L12.0043 18.1875L12.7506 19.5L14.4201 19.71L13.2122 20.7337L13.4969 22.1775ZM12.0086 16.3275C11.0378 15.7622 10.1032 15.1513 9.20894 14.4975C9.43326 14.25 9.61876 13.9613 9.77406 13.6425C10.4858 13.8938 11.2365 14.0363 12.0086 14.0363C12.7765 14.0363 13.5271 13.8938 14.2346 13.6462C14.3899 13.9688 14.5754 14.2575 14.7997 14.505C13.6393 15.36 12.4832 16.05 12.0086 16.3275Z" fill="#FF5900"/>
</svg>
